<mxfile host="Electron" agent="Mozilla/5.0 (Windows NT 10.0; Win64; x64) AppleWebKit/537.36 (KHTML, like Gecko) draw.io/24.7.17 Chrome/128.0.6613.36 Electron/32.0.1 Safari/537.36" version="24.7.17">
  <diagram name="Page-1" id="O4_kbR0Hv__t4CzAtHvt">
    <mxGraphModel dx="1296" dy="759" grid="1" gridSize="10" guides="1" tooltips="1" connect="1" arrows="1" fold="1" page="1" pageScale="1" pageWidth="850" pageHeight="1100" math="0" shadow="0">
      <root>
        <mxCell id="0" />
        <mxCell id="1" parent="0" />
        <mxCell id="Z6OuQ8fp2fDWR5M_TSCH-42" value="" style="rounded=0;whiteSpace=wrap;html=1;" vertex="1" parent="1">
          <mxGeometry x="40" y="40" width="800" height="410" as="geometry" />
        </mxCell>
        <mxCell id="Z6OuQ8fp2fDWR5M_TSCH-43" value="Canvas" style="text;html=1;align=left;verticalAlign=middle;whiteSpace=wrap;rounded=0;" vertex="1" parent="1">
          <mxGeometry x="50" y="40" width="60" height="30" as="geometry" />
        </mxCell>
        <mxCell id="Z6OuQ8fp2fDWR5M_TSCH-44" value="" style="rounded=0;whiteSpace=wrap;html=1;dashed=1;fillColor=none;" vertex="1" parent="1">
          <mxGeometry x="50" y="70" width="780" height="370" as="geometry" />
        </mxCell>
        <mxCell id="Z6OuQ8fp2fDWR5M_TSCH-45" value="Root stack panel (left to right)" style="text;html=1;align=left;verticalAlign=middle;whiteSpace=wrap;rounded=0;" vertex="1" parent="1">
          <mxGeometry x="60" y="70" width="190" height="30" as="geometry" />
        </mxCell>
        <mxCell id="Z6OuQ8fp2fDWR5M_TSCH-50" value="Text block" style="rounded=0;whiteSpace=wrap;html=1;" vertex="1" parent="1">
          <mxGeometry x="250" y="100" width="570" height="330" as="geometry" />
        </mxCell>
        <mxCell id="Z6OuQ8fp2fDWR5M_TSCH-53" value="" style="rounded=0;whiteSpace=wrap;html=1;dashed=1;" vertex="1" parent="1">
          <mxGeometry x="60" y="100" width="180" height="330" as="geometry" />
        </mxCell>
        <mxCell id="Z6OuQ8fp2fDWR5M_TSCH-49" value="Button" style="rounded=1;whiteSpace=wrap;html=1;" vertex="1" parent="1">
          <mxGeometry x="70" y="130" width="160" height="60" as="geometry" />
        </mxCell>
        <mxCell id="Z6OuQ8fp2fDWR5M_TSCH-51" value="" style="ellipse;whiteSpace=wrap;html=1;aspect=fixed;" vertex="1" parent="1">
          <mxGeometry x="70" y="200" width="30" height="30" as="geometry" />
        </mxCell>
        <mxCell id="Z6OuQ8fp2fDWR5M_TSCH-52" value="Radiobutton" style="text;html=1;align=left;verticalAlign=middle;whiteSpace=wrap;rounded=0;" vertex="1" parent="1">
          <mxGeometry x="110" y="200" width="80" height="30" as="geometry" />
        </mxCell>
        <mxCell id="Z6OuQ8fp2fDWR5M_TSCH-54" value="Stack panel (top to bottom)" style="text;html=1;align=left;verticalAlign=middle;whiteSpace=wrap;rounded=0;" vertex="1" parent="1">
          <mxGeometry x="70" y="100" width="150" height="30" as="geometry" />
        </mxCell>
        <mxCell id="Z6OuQ8fp2fDWR5M_TSCH-56" value="" style="whiteSpace=wrap;html=1;aspect=fixed;" vertex="1" parent="1">
          <mxGeometry x="70" y="240" width="30" height="30" as="geometry" />
        </mxCell>
        <mxCell id="Z6OuQ8fp2fDWR5M_TSCH-57" value="Checkbox" style="text;html=1;align=left;verticalAlign=middle;whiteSpace=wrap;rounded=0;" vertex="1" parent="1">
          <mxGeometry x="110" y="240" width="80" height="30" as="geometry" />
        </mxCell>
      </root>
    </mxGraphModel>
  </diagram>
</mxfile>
